<svg width="26" height="26" viewBox="0 0 26 26" fill="none" xmlns="http://www.w3.org/2000/svg">
<path d="M20.7559 0.465698C20.182 0.465698 19.6065 0.683506 19.1739 1.11609L18.6172 1.67566C18.5945 1.69487 18.573 1.71541 18.5528 1.73717L18.2745 2.0155C18.2228 2.06461 18.1784 2.12084 18.1426 2.18249L16.9004 3.53894C16.8924 3.54851 16.8846 3.55828 16.877 3.56823L12.8077 7.63757L6.13383 0.963745C5.85125 0.681163 5.46552 0.54187 5.07915 0.54187C4.69277 0.54187 4.30704 0.681163 4.02446 0.963745L0.423874 4.56433C-0.141291 5.1295 -0.141291 6.11147 0.423874 6.67664L0.426799 6.67964L7.16508 13.2773L3.0225 17.4199C2.89979 17.4505 2.78683 17.5117 2.69412 17.5978C2.60141 17.6838 2.53196 17.7919 2.49223 17.912L0.242233 24.8114C0.199081 24.9431 0.193285 25.0843 0.225488 25.2191C0.257692 25.354 0.326635 25.4772 0.424663 25.5753C0.522691 25.6733 0.645969 25.7422 0.780809 25.7744C0.91565 25.8066 1.05678 25.8008 1.18852 25.7577L8.08794 23.5077C8.24275 23.456 8.37646 23.3552 8.4688 23.2206L12.7901 18.8993L19.3204 25.5731L19.3234 25.5761C19.8885 26.1413 20.8705 26.1413 21.4357 25.5761L25.0362 21.9755C25.6014 21.4104 25.6014 20.4313 25.0362 19.8662L18.4297 13.2596L22.7217 8.96765C22.7963 8.89272 22.8542 8.80286 22.8916 8.70398L23.8174 7.85437C23.8184 7.85337 23.8194 7.85237 23.8204 7.85137C23.8807 7.81716 23.9359 7.77477 23.9845 7.7254L24.2628 7.44708C24.2878 7.42523 24.3113 7.40174 24.3331 7.37677L24.8839 6.82599C25.7491 5.96083 25.7491 4.53003 24.8839 3.66486L22.335 1.11609C21.9024 0.683506 21.3298 0.465698 20.7559 0.465698ZM20.7529 1.92468C20.9292 1.92468 21.107 2.00922 21.2744 2.17664L23.8232 4.72546C24.1581 5.0603 24.1581 5.43067 23.8232 5.7655L23.2579 6.33386C23.2549 6.33679 23.2519 6.33974 23.249 6.34271L23.2139 6.37493L22.1563 7.34173L18.6582 3.84368L19.6573 2.75091L20.2344 2.17669C20.4018 2.00927 20.5767 1.92474 20.753 1.92474L20.7529 1.92468ZM5.07915 2.03015L11.7471 8.69811L8.22856 12.2167L7.12993 11.1385L9.69633 8.57214L8.21098 7.08679L5.627 9.67077L4.08305 8.15612L5.12309 7.11608L3.63774 5.63366L2.58305 6.68835L1.49028 5.61901L5.07915 2.03015ZM17.4571 5.10925L18.3946 6.04675L5.31059 19.1307L4.37309 18.1932L17.4571 5.10925ZM19.8799 7.5321L20.9581 8.61022L7.87407 21.6942L6.79595 20.6161L19.8799 7.5321ZM17.3692 14.3202L23.9698 20.9208L20.3809 24.5096L19.4346 23.5458L21.9659 21.0145L20.4805 19.5292L17.9668 22.0458L16.3497 20.3934L17.3956 19.3475L15.9102 17.8622L14.8819 18.8905L13.8506 17.8387L17.3692 14.3202ZM3.53813 19.5409L6.45903 22.4618L2.62114 23.7128L2.28716 23.3788L3.53813 19.5409Z" fill="white"/>
</svg>
