<svg width="48" height="48" viewBox="0 0 48 48" fill="none" xmlns="http://www.w3.org/2000/svg">
<path d="M47 35H45.42C45.3991 34.9619 45.3823 34.9217 45.37 34.88L46.49 33.76C46.5827 33.6666 46.656 33.5557 46.7058 33.4339C46.7555 33.3121 46.7808 33.1816 46.78 33.05C46.7763 32.7852 46.6727 32.5316 46.49 32.34L44 29.86V4C44 2.93913 43.5786 1.92172 42.8284 1.17157C42.0783 0.421427 41.0609 0 40 0L4 0C2.93913 0 1.92172 0.421427 1.17157 1.17157C0.421427 1.92172 0 2.93913 0 4L0 39C0 39.2652 0.105357 39.5196 0.292893 39.7071C0.48043 39.8946 0.734784 40 1 40H28C28 40.2652 28.1054 40.5196 28.2929 40.7071C28.4804 40.8946 28.7348 41 29 41H30.58C30.6009 41.0381 30.6177 41.0783 30.63 41.12L29.51 42.24C29.4173 42.3334 29.344 42.4443 29.2942 42.5661C29.2445 42.6879 29.2192 42.8184 29.22 42.95C29.2237 43.2148 29.3273 43.4684 29.51 43.66L32.34 46.49C32.433 46.5837 32.5436 46.6581 32.6654 46.7089C32.7873 46.7597 32.918 46.7858 33.05 46.7858C33.182 46.7858 33.3127 46.7597 33.4346 46.7089C33.5564 46.6581 33.667 46.5837 33.76 46.49L34.88 45.37L35 45.42V47C35 47.2652 35.1054 47.5196 35.2929 47.7071C35.4804 47.8946 35.7348 48 36 48H40C40.2652 48 40.5196 47.8946 40.7071 47.7071C40.8946 47.5196 41 47.2652 41 47V45.42L41.12 45.37L42.24 46.49C42.3334 46.5827 42.4443 46.656 42.5661 46.7058C42.6879 46.7555 42.8184 46.7808 42.95 46.78C43.2148 46.7763 43.4684 46.6727 43.66 46.49L46.49 43.66C46.6727 43.4684 46.7763 43.2148 46.78 42.95C46.7808 42.8184 46.7555 42.6879 46.7058 42.5661C46.656 42.4443 46.5827 42.3334 46.49 42.24L45.37 41.12C45.3823 41.0783 45.3991 41.0381 45.42 41H47C47.2652 41 47.5196 40.8946 47.7071 40.7071C47.8946 40.5196 48 40.2652 48 40V36C48 35.7348 47.8946 35.4804 47.7071 35.2929C47.5196 35.1054 47.2652 35 47 35ZM2 4C2 3.46957 2.21071 2.96086 2.58579 2.58579C2.96086 2.21071 3.46957 2 4 2H40C40.5304 2 41.0391 2.21071 41.4142 2.58579C41.7893 2.96086 42 3.46957 42 4V6H2V4ZM2 38V8H42V29.76L41.12 30.63L41 30.58V29C41 28.7348 40.8946 28.4804 40.7071 28.2929C40.5196 28.1054 40.2652 28 40 28H36C35.7348 28 35.4804 28.1054 35.2929 28.2929C35.1054 28.4804 35 28.7348 35 29V30.58L34.88 30.63L33.76 29.51C33.6666 29.4173 33.5557 29.344 33.4339 29.2942C33.3121 29.2445 33.1816 29.2192 33.05 29.22C32.7852 29.2237 32.5316 29.3273 32.34 29.51L29.51 32.34C29.3273 32.5316 29.2237 32.7852 29.22 33.05C29.2192 33.1816 29.2445 33.3121 29.2942 33.4339C29.344 33.5557 29.4173 33.6666 29.51 33.76L30.63 34.88C30.6177 34.9217 30.6009 34.9619 30.58 35H29C28.7348 35 28.4804 35.1054 28.2929 35.2929C28.1054 35.4804 28 35.7348 28 36V38H2ZM46 39H44.71C44.4881 38.9905 44.2694 39.0551 44.0884 39.1837C43.9073 39.3123 43.7742 39.4974 43.71 39.71C43.5943 40.1056 43.4367 40.4878 43.24 40.85C43.1499 41.0395 43.1218 41.2525 43.1595 41.4589C43.1971 41.6653 43.2988 41.8546 43.45 42L44.36 42.91L43 44.36L42 43.45C41.8469 43.2965 41.648 43.1969 41.4334 43.1662C41.2188 43.1356 41 43.1755 40.81 43.28C40.4478 43.4767 40.0656 43.6343 39.67 43.75C39.4574 43.8142 39.2723 43.9473 39.1437 44.1284C39.0151 44.3094 38.9505 44.5281 38.96 44.75V46H37V44.71C37.0095 44.4881 36.9449 44.2694 36.8163 44.0884C36.6877 43.9073 36.5026 43.7742 36.29 43.71C35.8944 43.5943 35.5122 43.4367 35.15 43.24C34.96 43.1355 34.7412 43.0956 34.5266 43.1262C34.312 43.1569 34.1131 43.2565 33.96 43.41L33.05 44.32L31.64 43L32.55 42.09C32.7035 41.9369 32.8031 41.738 32.8338 41.5234C32.8644 41.3088 32.8245 41.09 32.72 40.9C32.5233 40.5378 32.3657 40.1556 32.25 39.76C32.1858 39.5474 32.0527 39.3623 31.8716 39.2337C31.6906 39.1051 31.4719 39.0405 31.25 39.05H30V37H31.29C31.5119 37.0095 31.7306 36.9449 31.9116 36.8163C32.0927 36.6877 32.2258 36.5026 32.29 36.29C32.4057 35.8944 32.5633 35.5122 32.76 35.15C32.8501 34.9605 32.8782 34.7475 32.8405 34.5411C32.8029 34.3347 32.7012 34.1454 32.55 34L31.64 33.09L33.05 31.68L33.96 32.59C34.1131 32.7435 34.312 32.8431 34.5266 32.8738C34.7412 32.9044 34.96 32.8645 35.15 32.76C35.5122 32.5633 35.8944 32.4057 36.29 32.29C36.5026 32.2258 36.6877 32.0927 36.8163 31.9116C36.9449 31.7306 37.0095 31.5119 37 31.29V30H39V31.29C38.9905 31.5119 39.0551 31.7306 39.1837 31.9116C39.3123 32.0927 39.4974 32.2258 39.71 32.29C40.1056 32.4057 40.4878 32.5633 40.85 32.76C41.0395 32.8501 41.2525 32.8782 41.4589 32.8405C41.6653 32.8029 41.8546 32.7012 42 32.55L42.91 31.64L44.32 33.05L43.41 33.96C43.2565 34.1131 43.1569 34.312 43.1262 34.5266C43.0956 34.7412 43.1355 34.96 43.24 35.15C43.4367 35.5122 43.5943 35.8944 43.71 36.29C43.7742 36.5026 43.9073 36.6877 44.0884 36.8163C44.2694 36.9449 44.4881 37.0095 44.71 37H46V39Z" fill="#F05E23"/>
</svg>
