<svg width="42" height="34" viewBox="0 0 42 34" fill="none" xmlns="http://www.w3.org/2000/svg">
<path d="M38.899 27.1972H33.5815V33.2558H38.9049C39.3076 33.2558 39.7063 33.177 40.0783 33.0239C40.4502 32.8709 40.7881 32.6466 41.0726 32.3639C41.3571 32.0811 41.5827 31.7455 41.7364 31.3762C41.8901 31.0069 41.969 30.6112 41.9684 30.2116L41.9924 30.2265H42V30.184C41.9977 29.7869 41.9152 29.3942 41.7575 29.0292C41.5997 28.6641 41.3699 28.3342 41.0815 28.0587C40.7928 27.7796 40.4514 27.5598 40.0769 27.412C39.7023 27.2641 39.3021 27.1911 38.899 27.1972ZM39.1331 0.738679L33.489 0.709763V16.0643C33.489 16.9773 33.1235 17.8529 32.4729 18.4984C31.8223 19.144 30.9399 19.5067 30.0198 19.5067C29.0997 19.5067 28.2173 19.144 27.5667 18.4984C26.9162 17.8529 26.5507 16.9773 26.5507 16.0643V0.665609L8.23348 0.565918V16.56C8.23348 16.9149 7.98629 17.1914 7.62864 17.1914H4.38807C3.22903 17.1926 2.11745 17.6483 1.29552 18.4592C0.473593 19.2701 0.00793213 20.3705 0 21.5205V21.5303C0.00365477 22.6856 0.465582 23.7931 1.28585 24.6132C2.10611 25.4332 3.21876 25.8998 4.38308 25.9121H11.5639V6.1366C11.5639 5.78171 11.8566 5.53322 12.2142 5.53322H18.9443C19.302 5.53322 19.6123 5.78171 19.6123 6.1366V25.9121H38.8926C40.0529 25.9121 41.1674 26.3008 42 27.1105V3.61467C42.0021 2.85667 41.7017 2.12868 41.1645 1.58978C40.6273 1.05088 39.8969 0.744886 39.1331 0.738679Z" fill="#F05E23"/>
</svg>
